<svg width="164" height="35" viewBox="0 0 164 35" fill="none" xmlns="http://www.w3.org/2000/svg">
<path d="M9.5105 11.194H0.4805V4.6H26.8145V11.194H17.8265V34H9.5105V11.194ZM65.9382 11.236L57.8322 34H50.1042L45.8202 21.61L41.3682 34H33.6402L25.5342 11.236H33.0942L37.7562 25.012L42.5862 11.236H49.3902L54.0942 25.138L58.9242 11.236H65.9382ZM68.3765 11.236H76.3565V34H68.3765V11.236ZM72.3665 8.716C70.9105 8.716 69.7345 8.31 68.8385 7.498C67.9425 6.686 67.4945 5.678 67.4945 4.474C67.4945 3.27 67.9425 2.262 68.8385 1.45C69.7345 0.637999 70.9105 0.231999 72.3665 0.231999C73.8225 0.231999 74.9985 0.623999 75.8945 1.408C76.7905 2.164 77.2385 3.144 77.2385 4.348C77.2385 5.608 76.7905 6.658 75.8945 7.498C74.9985 8.31 73.8225 8.716 72.3665 8.716ZM96.3685 10.858C99.1965 10.858 101.464 11.698 103.172 13.378C104.908 15.058 105.776 17.592 105.776 20.98V34H97.7965V22.282C97.7965 19.174 96.5505 17.62 94.0585 17.62C92.6865 17.62 91.5805 18.068 90.7405 18.964C89.9285 19.86 89.5225 21.204 89.5225 22.996V34H81.5425V11.236H89.1445V13.714C90.0405 12.79 91.1045 12.09 92.3365 11.614C93.5685 11.11 94.9125 10.858 96.3685 10.858ZM121.119 26.02L118.767 28.414V34H110.787V2.836H118.767V19.174L126.915 11.236H136.365L126.915 20.98L137.163 34H127.503L121.119 26.02ZM163.109 11.236V34H155.507V31.564C154.667 32.488 153.659 33.188 152.483 33.664C151.307 34.14 150.061 34.378 148.745 34.378C145.805 34.378 143.453 33.51 141.689 31.774C139.953 30.038 139.085 27.434 139.085 23.962V11.236H147.065V22.66C147.065 24.368 147.387 25.614 148.031 26.398C148.675 27.182 149.613 27.574 150.845 27.574C152.105 27.574 153.127 27.14 153.911 26.272C154.723 25.376 155.129 24.018 155.129 22.198V11.236H163.109Z" fill="#3965FF"/>
</svg>
